# xmcd
#
# Track frame offsets:
#	150
#	16836
#	27095
#	37555
#	51521
#	71033
#	85705
#	98519
#	107985
#	126063
#	139677
#	163593
#	181822
#	192818
#	204061
#	217475
#
# Disc length: 3063 seconds
#
# Revision: 0
# Processed by: cddbd v1.5.2PL0 Copyright (c) Steve Scherf et al.
# Submitted via: EasyCDDAExtractor 16.0.6.1
#
DISCID=cf0bf510
DTITLE=Συλλογικός δίσκος - Τα μεγάλα τραγούδια-Μ. Χατζιδάκις 5
DYEAR=2010
DGENRE=Ποικίλη
TTITLE0=Φαραντούρη Μαρία - Ο  εφιάλτης της Περσεφόνης [Νίκος Γκάτσος]
TTITLE1=Αλεξάνδρα - Κάνε τον πόνο σου χαρά [Νίκος Γκάτσος]
TTITLE2=Γιαννάτου Σαβίνα - Ο κυρ Αντώνης [Μάνος Χατζιδάκις]
TTITLE3=Μητσιάς Μανώλης - Κυκλαδίτικο [Νίκος Γκάτσος]
TTITLE4=Φαραντούρη Μαρία - Μαννούλα μου [Ιάκ. Καμπανέλλης]
TTITLE5=Μερκούρη Μελίνα - Ο μήνας έχει δέκα τρεις [Μιχ. Κακογιάννης]
TTITLE6=Ζορμπαλά Μαργαρίτα - Μεθυσμένο κορίτσι [Μάνος Χατζιδάκις]
TTITLE7=Αρλέτα - Κι αν διψάσεις για νερό [Νίκος Γκάτσος]
TTITLE8=Μητσιάς Μανώλης - Ο ταχυδρόμος πέθανε [Μάνος Χατζιδάκις]
TTITLE9=Αλεξάνδρα - Για την Ελένη [Μιχ. Μπουρμπούλης]
TTITLE10=Γισδάκης Βασίλης - The day [Brian Corrigan]
TTITLE11=Βενετσάνου Νένα - Το λιμάνι [Μάνος Χατζιδάκις]
TTITLE12=Ζορμπαλά Μαργαρίτα - Πάει ο καιρός [Νίκος Γκάτσος]
TTITLE13=Ζωγράφος Γιώργος - Ο Ροβινσών στην Μύκονο [Νίκος Γκάτσος]
TTITLE14=Αλεξάνδρα - Ψηλά στην Ακροκόρινθο [Μιχ. Μπουρμπούλης]
TTITLE15=Άνευ ερμηνευτού - Το βαλς των χαμένων ονείρων [οργανικό]
EXTD=
EXTT0=
EXTT1=
EXTT2=
EXTT3=
EXTT4=
EXTT5=
EXTT6=
EXTT7=
EXTT8=
EXTT9=
EXTT10=
EXTT11=
EXTT12=
EXTT13=
EXTT14=
EXTT15=
PLAYORDER=
